<svg width="195" height="34" viewBox="0 0 195 34" fill="none" xmlns="http://www.w3.org/2000/svg">
<rect x="1" y="1" width="193" height="32" stroke="white" stroke-width="2"/>
<path d="M75.2 25.14C74.2267 25.14 73.3467 24.9733 72.56 24.64C71.7867 24.3067 71.1733 23.8267 70.72 23.2C70.2667 22.5733 70.0333 21.8333 70.02 20.98H73.02C73.06 21.5533 73.26 22.0067 73.62 22.34C73.9933 22.6733 74.5 22.84 75.14 22.84C75.7933 22.84 76.3067 22.6867 76.68 22.38C77.0533 22.06 77.24 21.6467 77.24 21.14C77.24 20.7267 77.1133 20.3867 76.86 20.12C76.6067 19.8533 76.2867 19.6467 75.9 19.5C75.5267 19.34 75.0067 19.1667 74.34 18.98C73.4333 18.7133 72.6933 18.4533 72.12 18.2C71.56 17.9333 71.0733 17.54 70.66 17.02C70.26 16.4867 70.06 15.78 70.06 14.9C70.06 14.0733 70.2667 13.3533 70.68 12.74C71.0933 12.1267 71.6733 11.66 72.42 11.34C73.1667 11.0067 74.02 10.84 74.98 10.84C76.42 10.84 77.5867 11.1933 78.48 11.9C79.3867 12.5933 79.8867 13.5667 79.98 14.82H76.9C76.8733 14.34 76.6667 13.9467 76.28 13.64C75.9067 13.32 75.4067 13.16 74.78 13.16C74.2333 13.16 73.7933 13.3 73.46 13.58C73.14 13.86 72.98 14.2667 72.98 14.8C72.98 15.1733 73.1 15.4867 73.34 15.74C73.5933 15.98 73.9 16.18 74.26 16.34C74.6333 16.4867 75.1533 16.66 75.82 16.86C76.7267 17.1267 77.4667 17.3933 78.04 17.66C78.6133 17.9267 79.1067 18.3267 79.52 18.86C79.9333 19.3933 80.14 20.0933 80.14 20.96C80.14 21.7067 79.9467 22.4 79.56 23.04C79.1733 23.68 78.6067 24.1933 77.86 24.58C77.1133 24.9533 76.2267 25.14 75.2 25.14ZM92.0675 11.04V13.3H88.3475V25H85.5475V13.3H81.8275V11.04H92.0675ZM102.67 22.34H97.1105L96.1905 25H93.2505L98.2705 11.02H101.53L106.55 25H103.59L102.67 22.34ZM101.91 20.1L99.8905 14.26L97.8705 20.1H101.91ZM115.627 25L112.547 19.56H111.227V25H108.427V11.04H113.667C114.747 11.04 115.667 11.2333 116.427 11.62C117.187 11.9933 117.754 12.5067 118.127 13.16C118.514 13.8 118.707 14.52 118.707 15.32C118.707 16.24 118.44 17.0733 117.907 17.82C117.374 18.5533 116.58 19.06 115.527 19.34L118.867 25H115.627ZM111.227 17.46H113.567C114.327 17.46 114.894 17.28 115.267 16.92C115.64 16.5467 115.827 16.0333 115.827 15.38C115.827 14.74 115.64 14.2467 115.267 13.9C114.894 13.54 114.327 13.36 113.567 13.36H111.227V17.46ZM130.739 11.04V13.3H127.019V25H124.219V13.3H120.499V11.04H130.739Z" fill="white"/>
</svg>
