<svg width="1578" height="180" viewBox="0 0 1578 180" fill="none" xmlns="http://www.w3.org/2000/svg">
<path d="M65.5 1H95.625C96.0417 2.75 105.833 35.3333 125 98.75H130.375V157.625H118V162.25H130.375V174.875H97.125V138.625H56.375V154H39.875V180H9.625V178.25H12V154H24.375V103.875H34.625L65.5 1ZM79.625 51.375V51.75C77.0417 65.9167 72.0417 88.3333 64.625 119H92.625V98.75H90.25C83.5833 69.75 80.25 53.9583 80.25 51.375H79.625ZM26.25 94.875H29C29 95.625 29.375 96.25 30.125 96.75C30.2083 96 30.625 95.375 31.375 94.875H33.5V95.125C32.0833 97.125 31.375 98.25 31.375 98.5C31.7083 99.25 32.5 100.458 33.75 102.125V102.75H32.625C31.4583 102.75 30.625 101.917 30.125 100.25C28.875 101.917 28.1667 102.75 28 102.75H26.5C26.0833 102.75 25.875 102.542 25.875 102.125C26.125 102.125 26.9583 101 28.375 98.75V98.25C26.9583 96.1667 26.25 95.0417 26.25 94.875ZM0.875 98.5H24.375V103.875H0.875V98.5ZM131.25 102.375H137.625V103.875L133.75 108.75H137.375C137.708 108.833 137.875 109.042 137.875 109.375V110C137.875 110.417 137.708 110.625 137.375 110.625H131V109.125L134.875 104.25H131.25V102.375ZM85.125 110.25H86.875V113.25L90.25 110.25H92V110.625L89.375 113.625C91.375 116.458 92.375 118.042 92.375 118.375H90.5C90.3333 118.375 89.4167 117.292 87.75 115.125C87.5 115.125 87.2083 115.417 86.875 116V118.375H85.125V110.25ZM131.875 113H135.5C137.333 113.25 138.25 114.167 138.25 115.75L137.375 117.25C137.958 117.917 138.25 119.125 138.25 120.875V121.125H136.375C136.208 119.125 135.917 118.125 135.5 118.125H133.375V121.125H131.875C131.458 121.125 131.25 120.917 131.25 120.5V113.625C131.333 113.208 131.542 113 131.875 113ZM133.375 114.75V116.625H135.5C135.917 116.625 136.125 116.417 136.125 116V114.75H133.375ZM131.25 123.5H137C137.417 123.583 137.625 123.792 137.625 124.125V124.75C137.625 125.167 137.417 125.375 137 125.375H135.25V131.75H133.125V125.375H131.25C130.833 125.375 130.625 125.167 130.625 124.75V124.125C130.708 123.708 130.917 123.5 131.25 123.5ZM130.625 134.125H132.125C132.708 134.125 133.333 135.833 134 139.25H134.25C135.25 136.25 135.75 134.542 135.75 134.125H137.875C136.292 139.542 135.292 142.25 134.875 142.25H133.125L130.625 134.125ZM65.5 141V142.625C65.5 142.958 63.875 143.625 60.625 144.625V145L65.5 146.75V148.625L57.875 145.875V143.75L65.5 141ZM18.625 144.625H19.625C20.2917 144.625 21.375 147.375 22.875 152.875H21.125C21.125 152.708 20.9167 152.083 20.5 151H17.75C17.5833 152.25 17.2917 152.875 16.875 152.875H15.375C17.125 147.375 18.2083 144.625 18.625 144.625ZM134.625 144.625H135.5C137.5 144.625 138.708 146.042 139.125 148.875C138.542 151.708 137.25 153.125 135.25 153.125C132.417 152.625 131 151.208 131 148.875C131.417 146.042 132.625 144.625 134.625 144.625ZM133.125 148.625V148.875C133.125 149.958 133.625 150.792 134.625 151.375H135.5C136.5 150.792 137 149.958 137 148.875V148.625C136.833 147.042 136.125 146.25 134.875 146.25C133.708 146.667 133.125 147.458 133.125 148.625ZM19 147.375C18.5833 148.708 18.375 149.417 18.375 149.5H19.875L19.25 147.375H19ZM97.125 177H137.375V180H97.125V177ZM208.625 0.875C233.625 0.875 249.375 8.66667 255.875 24.25C257.708 28.0833 258.625 30.625 258.625 31.875H242.875V36.625H259.75V36.375C259.75 35.5417 259.375 34.0417 258.625 31.875H287.5V36.625H260.125V37C261.542 43.6667 262.542 50.875 263.125 58.625C263.125 59.0417 252.167 59.8333 230.25 61V60.75C230.25 40.8333 223.417 30.875 209.75 30.875H206.25C196 30.875 189.75 35.2083 187.5 43.875C185.667 51.2083 184.75 60.8333 184.75 72.75V97.125L184.5 100.75H173.125V106.5H184.5V149.875H232.75V104.75H260.375V149.875H245V177.625H212.875V180H187.875V177.625H162.5V163.75H179.375V157.75H154.125V137.25H143.25V112H149C148.75 101.5 148.625 93.25 148.625 87.25C148.625 60 149.958 42.8333 152.625 35.75C155.042 27.5833 159.042 20.5417 164.625 14.625C174.542 5.45833 189.208 0.875 208.625 0.875ZM186.875 140.875H188.375V147.125H192V149H186.875C186.542 149 186.375 148.792 186.375 148.375V141.5C186.375 141.083 186.542 140.875 186.875 140.875ZM224.5 140.875H226.375C227.375 141.708 227.875 142.5 227.875 143.25C228.042 143.25 228.75 142.458 230 140.875H231.5V141.5C230.083 143.333 229.375 144.625 229.375 145.375C229.625 145.375 230.417 146.458 231.75 148.625V149H230L227.875 146.625C227.125 148.042 226.542 148.833 226.125 149H224.25C224.667 148.167 225.583 146.75 227 144.75L224.5 141.125V140.875ZM249.25 151.75C251.25 152.25 252.25 152.833 252.25 153.5V154.75H251L249.875 153.5H248.625C248.208 153.583 248 153.792 248 154.125V154.75C251.083 155.333 252.625 156 252.625 156.75V157.75C252.625 159.333 251.708 160.125 249.875 160.125H248.625C247.542 160.125 246.667 159.542 246 158.375V157.125H247.75C247.75 158.125 248.333 158.625 249.5 158.625H249.875C250.125 158.625 250.417 158.333 250.75 157.75C250.75 157.5 249.333 156.792 246.5 155.625L246.25 155V153.5C246.25 152.833 247.25 152.25 249.25 151.75ZM341.125 0.875C366.125 0.875 381.875 8.66667 388.375 24.25C390.208 28.0833 391.125 30.625 391.125 31.875H375.375V36.625H392.25V36.375C392.25 35.5417 391.875 34.0417 391.125 31.875H420V36.625H392.625V37C394.042 43.6667 395.042 50.875 395.625 58.625C395.625 59.0417 384.667 59.8333 362.75 61V60.75C362.75 40.8333 355.917 30.875 342.25 30.875H338.75C328.5 30.875 322.25 35.2083 320 43.875C318.167 51.2083 317.25 60.8333 317.25 72.75V97.125L317 100.75H305.625V106.5H317V149.875H365.25V104.75H392.875V149.875H377.5V177.625H345.375V180H320.375V177.625H295V163.75H311.875V157.75H286.625V137.25H275.75V112H281.5C281.25 101.5 281.125 93.25 281.125 87.25C281.125 60 282.458 42.8333 285.125 35.75C287.542 27.5833 291.542 20.5417 297.125 14.625C307.042 5.45833 321.708 0.875 341.125 0.875ZM319.375 140.875H320.875V147.125H324.5V149H319.375C319.042 149 318.875 148.792 318.875 148.375V141.5C318.875 141.083 319.042 140.875 319.375 140.875ZM357 140.875H358.875C359.875 141.708 360.375 142.5 360.375 143.25C360.542 143.25 361.25 142.458 362.5 140.875H364V141.5C362.583 143.333 361.875 144.625 361.875 145.375C362.125 145.375 362.917 146.458 364.25 148.625V149H362.5L360.375 146.625C359.625 148.042 359.042 148.833 358.625 149H356.75C357.167 148.167 358.083 146.75 359.5 144.75L357 141.125V140.875ZM381.75 151.75C383.75 152.25 384.75 152.833 384.75 153.5V154.75H383.5L382.375 153.5H381.125C380.708 153.583 380.5 153.792 380.5 154.125V154.75C383.583 155.333 385.125 156 385.125 156.75V157.75C385.125 159.333 384.208 160.125 382.375 160.125H381.125C380.042 160.125 379.167 159.542 378.5 158.375V157.125H380.25C380.25 158.125 380.833 158.625 382 158.625H382.375C382.625 158.625 382.917 158.333 383.25 157.75C383.25 157.5 381.833 156.792 379 155.625L378.75 155V153.5C378.75 152.833 379.75 152.25 381.75 151.75ZM419.375 1H507.625V30.25C507.625 30.6667 507.417 30.875 507 30.875H454.625V69.75H501.625V70C501.625 71.1667 501.417 77.5 501 89C500.833 89 500.75 89.125 500.75 89.375H502.875V98.375H462.125V135.125H451.25V138.75H462.125V149.875H508.25V154.125H504.625V176.125H449.5V180H423.25V115.875H419.375V93.25H390.75V89.375H419.375V1ZM419.625 89.375V93.25H434.375V89.375H419.625ZM464.875 140.875H467V143.875H467.25C467.25 143.292 468.167 142.292 470 140.875H472.125L469.125 144.125L472.375 149H470.25C468.667 146.75 467.792 145.625 467.625 145.625C467.208 145.708 467 145.917 467 146.25V149H464.875V140.875ZM475.375 140.875H479.625C480.958 140.875 481.875 141.667 482.375 143.25C482.375 143.5 481.958 144.208 481.125 145.375C481.708 145.375 482.125 146.583 482.375 149H480.875C480.458 149 480.125 148 479.875 146H477.5V149H475.375V140.875ZM489 140.875H490.125C491.958 140.875 493.083 142.083 493.5 144.5V145.625C493.5 146.292 493.208 147 492.625 147.75V148.125C493.208 148.125 493.5 148.292 493.5 148.625C493.5 148.958 493.208 149.292 492.625 149.625C492.292 149.625 491.958 149.292 491.625 148.625L490.125 149H489C487 149 485.875 147.5 485.625 144.5C486.208 142.083 487.333 140.875 489 140.875ZM487.75 144.5V145.375C487.75 146.792 488.458 147.5 489.875 147.5H490.125V147.125H489.625V146.875C489.625 146.542 489.917 146.25 490.5 146L491.375 146.5C491.375 146.417 491.458 145.833 491.625 144.75C491.542 143.167 490.75 142.375 489.25 142.375C488.25 142.625 487.75 143.333 487.75 144.5ZM477.5 142.625V144.5H479.625C480.042 144.5 480.25 144.292 480.25 143.875V143.25C480.25 142.833 480.042 142.625 479.625 142.625H477.5ZM506.5 155.875H508.25V156.25C508.25 159.833 507.958 161.625 507.375 161.625C506.792 161.625 506.5 160.333 506.5 157.75V155.875ZM506.5 161.875H508.25V163.75H506.5V161.875ZM575.25 1.375C595.083 1.375 608.375 7.75 615.125 20.5C619.792 30.1667 622.125 39.625 622.125 48.875H621.875C608.292 50.0417 599 50.625 594 50.625C594 44.0417 591.958 38.5 587.875 34C584.042 31.8333 580.5 30.75 577.25 30.75H572.25C563.75 30.75 558.583 34.0417 556.75 40.625C556.333 42.5417 556.125 44.0417 556.125 45.125V47.75C556.125 57.0833 561.042 63.8333 570.875 68C571.708 68.75 578.542 71.875 591.375 77.375C598.208 80.5417 604.542 84.4583 610.375 89.125V89.375H579V92.875H620.375V97.875H625.625V152.125H615.375V180H535.875V152.125H517.125V133.375H527.75V126.875H517.125V122.5H553.5V152.125H590.75V107.5H562.875V92.875H528.25V89.375H545V89.125C530.333 79.375 523 65.5833 523 47.75V45.375C523 30.4583 527.583 19.125 536.75 11.375C545.083 4.70833 557.917 1.375 575.25 1.375ZM620.375 89.375H633V92.875H620.375V89.375ZM505.125 126.875H517.125V133.375H505.125V126.875ZM585.25 126.875H589C589.417 126.958 589.625 127.167 589.625 127.5V128.375H586.375V129.5H589.25V130.375C589.25 130.792 589.083 131 588.75 131H586.375V132.25H589.625V133.125C589.625 133.458 589.417 133.625 589 133.625H585.25C584.833 133.625 584.625 133.458 584.625 133.125V127.5C584.708 127.083 584.917 126.875 585.25 126.875ZM583.75 135.75H584.875C585.042 135.75 585.75 136.5 587 138C587.583 136.5 588.042 135.75 588.375 135.75H589.25C589.667 135.75 589.875 135.917 589.875 136.25C588.125 138.25 587.25 140.333 587.25 142.5H586.375C585.958 142.5 585.667 141.333 585.5 139C584.333 137.417 583.75 136.333 583.75 135.75ZM582.875 144.5H584C584.5 144.5 585 145.792 585.5 148.375H586.125C586.625 145.792 587.083 144.5 587.5 144.5H588.75C589.083 144.583 589.25 144.792 589.25 145.125V150.625C589.25 151.042 589.083 151.25 588.75 151.25H587.875V147.5H587.5L586.375 151.25H585.5C585.083 151.25 584.583 150 584 147.5H583.75V151.25H582.875C582.458 151.25 582.25 151.042 582.25 150.625V145.125C582.333 144.708 582.542 144.5 582.875 144.5ZM617.125 153.625H620.125C621.708 153.625 622.5 154.417 622.5 156C622.083 156 621.875 156.167 621.875 156.5C622.458 157.25 622.75 157.958 622.75 158.625C622.25 159.792 621.167 160.375 619.5 160.375H617.75C617.333 160.375 617.125 160.167 617.125 159.75V153.625ZM618.875 155.125V156.25H620.125C620.458 156.25 620.625 156.042 620.625 155.625V155.125H618.875ZM618.875 157.375V158.875H620.375C620.792 158.875 621 158.667 621 158.25V158C621 157.583 620.792 157.375 620.375 157.375H618.875ZM617.125 162.375H618.375C618.792 162.375 619.667 163.75 621 166.5H621.25V162.375H622.75V168.5C622.75 168.917 622.542 169.125 622.125 169.125H621.5C621.333 169.125 620.375 167.875 618.625 165.375V168.5C618.625 168.917 618.417 169.125 618 169.125H617.75C617.333 169.125 617.125 168.917 617.125 168.5V162.375ZM765.125 0.75H765.375C792.125 0.75 808.5 9.45833 814.5 26.875C817.25 33.375 818.625 42.5 818.625 54.25L789.5 58.125L789.125 57.5V56.875C789.125 42.7917 784.375 34.375 774.875 31.625C771.958 30.875 768.417 30.375 764.25 30.125C753.917 30.125 747.25 35.6667 744.25 46.75C742.5 54.1667 741.625 62.9167 741.625 73V87C741.625 103.333 741.833 115.583 742.25 123.75H749.625V148.75H785.25V106H762.75V83.125H830.5V88.125H821.625V114.625H803.5V122.875H812.375V173.75H715.5V146.75H704.5V144.375H709.25V141.625H715.5V131.5H698.5V109.875H706.5C706.333 103.542 706.25 99.875 706.25 98.875C706.25 60.9583 708.333 38.0417 712.5 30.125C713.667 25.2083 717.125 19.75 722.875 13.75C731.292 5.08333 745.375 0.75 765.125 0.75ZM744.875 113.375H746.625V121.375H744.875V113.375ZM817.75 124.125C819 124.542 819.667 125.042 819.75 125.625V126.75C819.75 127.083 819.375 127.5 818.625 128C818.792 128.333 818.875 128.625 818.875 128.875H819.5V128.25H821V128.625C821 129.542 820.792 130 820.375 130C820.375 130.25 820.875 130.958 821.875 132.125H820.125L819.25 131.5C818.417 132.083 817.625 132.375 816.875 132.375C815.542 132.375 814.75 131.5 814.5 129.75C814.75 128.917 815.208 128.333 815.875 128C815.708 126.917 815.625 126.125 815.625 125.625C815.625 125.042 816.333 124.542 817.75 124.125ZM817.125 126.25C817.292 126.583 817.375 126.875 817.375 127.125C817.708 127.125 818 126.833 818.25 126.25C818.25 125.833 818.083 125.625 817.75 125.625C817.333 125.625 817.125 125.833 817.125 126.25ZM816.875 128.875L816.25 129.75V130C816.25 130.333 816.542 130.667 817.125 131C817.875 130.667 818.25 130.333 818.25 130L816.875 128.875ZM817.75 136.875C819 137.292 819.667 137.792 819.75 138.375V139.625C819.75 139.875 819.375 140.25 818.625 140.75C818.792 141.167 818.875 141.458 818.875 141.625H819.5V141H821V141.375C821 142.375 820.792 142.875 820.375 142.875C820.375 143.042 820.875 143.708 821.875 144.875H820.125L819.25 144.375C818.417 144.958 817.625 145.25 816.875 145.25C815.542 145.25 814.75 144.333 814.5 142.5C814.75 141.75 815.208 141.167 815.875 140.75C815.708 139.667 815.625 138.875 815.625 138.375C815.625 137.792 816.333 137.292 817.75 136.875ZM817.125 139C817.292 139.333 817.375 139.625 817.375 139.875C817.708 139.875 818 139.583 818.25 139C818.25 138.583 818.083 138.375 817.75 138.375C817.333 138.458 817.125 138.667 817.125 139ZM755.25 139C757.833 139.417 759.125 140.583 759.125 142.5V143.375C758.958 145.958 757.667 147.25 755.25 147.25H755C752.583 147.25 751.375 145.792 751.375 142.875C752.042 140.292 753.333 139 755.25 139ZM762.125 139.25H768.625V141H766.625V146.75C766.625 147.083 766.417 147.25 766 147.25H765.125C764.708 147.25 764.5 147.083 764.5 146.75V141H762.75C762.333 141 762.125 140.833 762.125 140.5V139.25ZM753.5 142.875V144.375C753.5 144.625 753.917 145 754.75 145.5H756.125C756.792 145.5 757.208 144.708 757.375 143.125C757.375 142.125 756.875 141.333 755.875 140.75H755.625C754.208 140.75 753.5 141.458 753.5 142.875ZM816.875 141.625L816.25 142.5V142.875C816.25 143.125 816.542 143.417 817.125 143.75C817.875 143.417 818.25 143.125 818.25 142.875C817.417 142.042 816.958 141.625 816.875 141.625ZM817.375 149.625C818.375 149.625 819.167 150.125 819.75 151.125V152.375C819.75 152.708 819.375 153.083 818.625 153.5C818.792 153.917 818.875 154.208 818.875 154.375H819.5V153.875H821V154.125C821 155.125 820.792 155.625 820.375 155.625C820.375 155.792 820.875 156.5 821.875 157.75H820.125L819.25 157.125C818.417 157.708 817.625 158 816.875 158C815.542 158 814.75 157.125 814.5 155.375C814.75 154.542 815.208 153.917 815.875 153.5L815.625 151.5V151.125C815.625 150.792 816.208 150.292 817.375 149.625ZM817.125 151.75C817.292 152.167 817.375 152.458 817.375 152.625C817.708 152.625 818 152.333 818.25 151.75C818.25 151.333 818.083 151.125 817.75 151.125C817.333 151.208 817.125 151.417 817.125 151.75ZM816.875 154.375L816.25 155.375V155.625C816.25 155.875 816.542 156.167 817.125 156.5C817.875 156.25 818.25 155.958 818.25 155.625L816.875 154.375ZM817.375 162.5C818.375 162.5 819.167 163 819.75 164V165.125C819.75 165.458 819.375 165.875 818.625 166.375C818.792 166.708 818.875 167 818.875 167.25H819.5V166.625H821V166.875L820.375 169C820.625 169 821.125 169.5 821.875 170.5H820.125L819.25 169.875C818.417 170.458 817.625 170.75 816.875 170.75C815.542 170.75 814.75 169.875 814.5 168.125C814.75 167.292 815.208 166.708 815.875 166.375L815.625 164.25V164C815.625 163.583 816.208 163.083 817.375 162.5ZM817.125 164.5C817.292 164.917 817.375 165.208 817.375 165.375C817.708 165.375 818 165.083 818.25 164.5C818.25 164.167 818.083 164 817.75 164C817.333 164 817.125 164.167 817.125 164.5ZM816.875 167.25L816.25 168.125V168.375C816.25 168.708 816.542 169 817.125 169.25C817.875 169 818.25 168.708 818.25 168.375L816.875 167.25ZM740.375 176.375H777.25V180H740.375V176.375ZM835.5 1.25H896.75C917.25 1.25 930.5 8.45833 936.5 22.875C939.083 30.2917 940.375 38.7917 940.375 48.375V55.875C940.375 73.2083 936.583 86.4167 929 95.5H916V102.125H935.875V144.875H924.125V151.5H941.875V176.75H904.625V136.375H890.25V110.25H865.25V154.5H870.625V180H836.125C835.708 180 835.5 179.792 835.5 179.375V107.625H850.875V102.5H835.5V1.25ZM870.625 30.375V80.875H879.125C891.875 80.875 899.25 79.6667 901.25 77.25C903.333 75.9167 904.958 73.2083 906.125 69.125H919.375V62.75H907.375V63.375C906.708 67.2083 906.208 69.125 905.875 69.125H888.75V62.75H906.75C907.167 62.75 907.375 62.5833 907.375 62.25C907.542 57.0833 907.625 54.1667 907.625 53.5C907.625 42.3333 905.708 35.5 901.875 33C898.875 31.25 893.375 30.375 885.375 30.375H870.625ZM866.75 111.75H868.25C869.083 112.167 869.5 112.792 869.5 113.625C869.833 113.625 870.208 113 870.625 111.75H872.5V112.125L870.625 114.75C870.625 114.917 871.333 116.042 872.75 118.125V118.375H871.25C871.083 118.375 870.5 117.667 869.5 116.25C868.917 117.583 868.417 118.292 868 118.375H866.5C867.833 116.292 868.5 115.083 868.5 114.75L866.75 111.75ZM867 120.75H872.5V121.75L869.125 125.875H872.5V127.375H866.75V126.25L870 122H867V120.75ZM1002.25 1H1032.38C1032.79 2.75 1042.58 35.3333 1061.75 98.75H1067.12V157.625H1054.75V162.25H1067.12V174.875H1033.88V138.625H993.125V154H976.625V180H946.375V178.25H948.75V154H961.125V103.875H971.375L1002.25 1ZM1016.38 51.375V51.75C1013.79 65.9167 1008.79 88.3333 1001.38 119H1029.38V98.75H1027C1020.33 69.75 1017 53.9583 1017 51.375H1016.38ZM963 94.875H965.75C965.75 95.625 966.125 96.25 966.875 96.75C966.958 96 967.375 95.375 968.125 94.875H970.25V95.125C968.833 97.125 968.125 98.25 968.125 98.5C968.458 99.25 969.25 100.458 970.5 102.125V102.75H969.375C968.208 102.75 967.375 101.917 966.875 100.25C965.625 101.917 964.917 102.75 964.75 102.75H963.25C962.833 102.75 962.625 102.542 962.625 102.125C962.875 102.125 963.708 101 965.125 98.75V98.25C963.708 96.1667 963 95.0417 963 94.875ZM937.625 98.5H961.125V103.875H937.625V98.5ZM1068 102.375H1074.38V103.875L1070.5 108.75H1074.12C1074.46 108.833 1074.62 109.042 1074.62 109.375V110C1074.62 110.417 1074.46 110.625 1074.12 110.625H1067.75V109.125L1071.62 104.25H1068V102.375ZM1021.88 110.25H1023.62V113.25L1027 110.25H1028.75V110.625L1026.12 113.625C1028.12 116.458 1029.12 118.042 1029.12 118.375H1027.25C1027.08 118.375 1026.17 117.292 1024.5 115.125C1024.25 115.125 1023.96 115.417 1023.62 116V118.375H1021.88V110.25ZM1068.62 113H1072.25C1074.08 113.25 1075 114.167 1075 115.75L1074.12 117.25C1074.71 117.917 1075 119.125 1075 120.875V121.125H1073.12C1072.96 119.125 1072.67 118.125 1072.25 118.125H1070.12V121.125H1068.62C1068.21 121.125 1068 120.917 1068 120.5V113.625C1068.08 113.208 1068.29 113 1068.62 113ZM1070.12 114.75V116.625H1072.25C1072.67 116.625 1072.88 116.417 1072.88 116V114.75H1070.12ZM1068 123.5H1073.75C1074.17 123.583 1074.38 123.792 1074.38 124.125V124.75C1074.38 125.167 1074.17 125.375 1073.75 125.375H1072V131.75H1069.88V125.375H1068C1067.58 125.375 1067.38 125.167 1067.38 124.75V124.125C1067.46 123.708 1067.67 123.5 1068 123.5ZM1067.38 134.125H1068.88C1069.46 134.125 1070.08 135.833 1070.75 139.25H1071C1072 136.25 1072.5 134.542 1072.5 134.125H1074.62C1073.04 139.542 1072.04 142.25 1071.62 142.25H1069.88L1067.38 134.125ZM1002.25 141V142.625C1002.25 142.958 1000.62 143.625 997.375 144.625V145L1002.25 146.75V148.625L994.625 145.875V143.75L1002.25 141ZM955.375 144.625H956.375C957.042 144.625 958.125 147.375 959.625 152.875H957.875C957.875 152.708 957.667 152.083 957.25 151H954.5C954.333 152.25 954.042 152.875 953.625 152.875H952.125C953.875 147.375 954.958 144.625 955.375 144.625ZM1071.38 144.625H1072.25C1074.25 144.625 1075.46 146.042 1075.88 148.875C1075.29 151.708 1074 153.125 1072 153.125C1069.17 152.625 1067.75 151.208 1067.75 148.875C1068.17 146.042 1069.38 144.625 1071.38 144.625ZM1069.88 148.625V148.875C1069.88 149.958 1070.38 150.792 1071.38 151.375H1072.25C1073.25 150.792 1073.75 149.958 1073.75 148.875V148.625C1073.58 147.042 1072.88 146.25 1071.62 146.25C1070.46 146.667 1069.88 147.458 1069.88 148.625ZM955.75 147.375C955.333 148.708 955.125 149.417 955.125 149.5H956.625L956 147.375H955.75ZM1033.88 177H1074.12V180H1033.88V177ZM1082.5 0.875H1119.12C1119.62 0.875 1123.54 10.4583 1130.88 29.625C1131.54 30.2917 1139.21 49.1667 1153.88 86.25H1163.25V0.875H1195.38V102.5H1199V142.125H1186V149.75H1199V173.375H1150.88V143.375H1142.38C1130.88 115.292 1123.12 95.9167 1119.12 85.25V55H1114.62V147H1107.38V178.75H1077.38V110.375H1082.88V110.125C1082.62 51.125 1082.5 14.7083 1082.5 0.875ZM1196.88 56.5H1200.25C1201.83 56.5 1202.62 57.3333 1202.62 59C1202.62 59.5833 1202.33 59.875 1201.75 59.875C1202.33 60.625 1202.62 61.5417 1202.62 62.625V63.25H1201.12C1200.96 61.5833 1200.67 60.75 1200.25 60.75H1198.75V63.25H1196.88V56.5ZM1198.75 58V59.625H1200.25C1200.67 59.625 1200.88 59.4167 1200.88 59V58H1198.75ZM1196.88 65.625H1202V67.125H1200.25V72.25H1198.38V67.125H1196.88C1196.46 67.125 1196.25 66.9167 1196.25 66.5V66.25C1196.33 65.8333 1196.54 65.625 1196.88 65.625ZM1196.25 74.75H1197.5C1198 74.75 1198.5 76.0417 1199 78.625H1199.62L1200.5 74.75H1202.38L1200.25 81.375H1198.75C1198.25 81.375 1197.42 79.1667 1196.25 74.75ZM1196.62 83.75H1198.38C1198.46 84.5 1198.88 85.125 1199.62 85.625C1200.29 84.375 1200.79 83.75 1201.12 83.75H1202.38V84.125C1201.12 85.9583 1200.5 87.0417 1200.5 87.375C1200.83 87.4583 1201.54 88.4583 1202.62 90.375H1200.5C1200.5 89.7917 1200.12 89.2083 1199.38 88.625C1198.62 89.7917 1198.08 90.375 1197.75 90.375H1196.25C1197.67 88.2917 1198.38 87.2083 1198.38 87.125C1197.21 85.2083 1196.62 84.0833 1196.62 83.75ZM1136.38 86.25V92.875H1156.38C1154.79 88.4583 1153.79 86.25 1153.38 86.25H1136.38ZM1163.62 86.25V92.875H1156.62C1160.88 103.542 1163.42 110.5 1164.25 113.75H1164.5V112.875C1163.92 101.958 1163.62 95.2917 1163.62 92.875H1178.12V86.25H1163.62ZM1196.88 92.875H1199.88C1201.96 93.125 1203 94.125 1203 95.875V96.125C1203 98.375 1202.08 99.5 1200.25 99.5H1196.88V92.875ZM1198.75 94.375V98.25C1200.33 98.25 1201.12 97.6667 1201.12 96.5V96.125C1201.12 95.125 1200.83 94.5417 1200.25 94.375H1198.75ZM1144.25 145.25H1148.75V146.75H1145.5V147.875H1148.12C1148.54 147.958 1148.75 148.167 1148.75 148.5V148.875C1148.75 149.292 1148.54 149.5 1148.12 149.5H1145.5V150.625H1148.5C1148.92 150.708 1149.12 150.917 1149.12 151.25V151.5C1149.12 151.917 1148.92 152.125 1148.5 152.125H1144.25C1143.83 152.125 1143.62 151.917 1143.62 151.5V145.75C1143.71 145.417 1143.92 145.25 1144.25 145.25ZM1107.88 148.5H1109.75C1110.58 151 1111 152.417 1111 152.75H1111.25C1111.75 149.917 1112.25 148.5 1112.75 148.5H1114V148.875C1112.75 153.125 1111.96 155.25 1111.62 155.25H1110C1110 154.667 1109.29 152.417 1107.88 148.5ZM1146.62 154.25H1147.25C1147.67 154.333 1147.88 154.542 1147.88 154.875V158.875C1147.88 159.958 1147.38 160.75 1146.38 161.25H1145.5C1144.08 161.25 1143.38 160.542 1143.38 159.125V158.5H1144.88C1144.88 159.333 1145.08 159.75 1145.5 159.75H1146V154.875C1146.08 154.458 1146.29 154.25 1146.62 154.25ZM1144.25 163.375H1144.88C1145.29 163.375 1145.5 164.167 1145.5 165.75L1148.12 163.375H1149.75V163.625L1147.25 166.375C1147.5 166.375 1148.42 167.583 1150 170L1149.38 170.375H1148.5C1148.25 170.375 1147.42 169.458 1146 167.625C1145.67 167.625 1145.38 168.542 1145.12 170.375H1144.25C1143.83 170.375 1143.62 170.167 1143.62 169.75V164C1143.71 163.583 1143.92 163.375 1144.25 163.375ZM1150.88 176.625H1209V180H1150.88V176.625ZM1207.25 0.875H1312.25V30.75H1277.5V154.625H1293.25V158.25H1277.5V171.875H1268.12V176.625H1274.75V180H1242.88C1242.46 180 1242.25 179.792 1242.25 179.375V30.75H1207.25V0.875ZM1265.12 154.625V158.25H1277.25V154.625H1265.12ZM1320.12 1H1408.38V30.25C1408.38 30.6667 1408.17 30.875 1407.75 30.875H1355.38V69.75H1402.38V70C1402.38 71.1667 1402.17 77.5 1401.75 89C1401.58 89 1401.5 89.125 1401.5 89.375H1403.62V98.375H1362.88V135.125H1352V138.75H1362.88V149.875H1409V154.125H1405.38V176.125H1350.25V180H1324V115.875H1320.12V93.25H1291.5V89.375H1320.12V1ZM1320.38 89.375V93.25H1335.12V89.375H1320.38ZM1365.62 140.875H1367.75V143.875H1368C1368 143.292 1368.92 142.292 1370.75 140.875H1372.88L1369.88 144.125L1373.12 149H1371C1369.42 146.75 1368.54 145.625 1368.38 145.625C1367.96 145.708 1367.75 145.917 1367.75 146.25V149H1365.62V140.875ZM1376.12 140.875H1380.38C1381.71 140.875 1382.62 141.667 1383.12 143.25C1383.12 143.5 1382.71 144.208 1381.88 145.375C1382.46 145.375 1382.88 146.583 1383.12 149H1381.62C1381.21 149 1380.88 148 1380.62 146H1378.25V149H1376.12V140.875ZM1389.75 140.875H1390.88C1392.71 140.875 1393.83 142.083 1394.25 144.5V145.625C1394.25 146.292 1393.96 147 1393.38 147.75V148.125C1393.96 148.125 1394.25 148.292 1394.25 148.625C1394.25 148.958 1393.96 149.292 1393.38 149.625C1393.04 149.625 1392.71 149.292 1392.38 148.625L1390.88 149H1389.75C1387.75 149 1386.62 147.5 1386.38 144.5C1386.96 142.083 1388.08 140.875 1389.75 140.875ZM1388.5 144.5V145.375C1388.5 146.792 1389.21 147.5 1390.62 147.5H1390.88V147.125H1390.38V146.875C1390.38 146.542 1390.67 146.25 1391.25 146L1392.12 146.5C1392.12 146.417 1392.21 145.833 1392.38 144.75C1392.29 143.167 1391.5 142.375 1390 142.375C1389 142.625 1388.5 143.333 1388.5 144.5ZM1378.25 142.625V144.5H1380.38C1380.79 144.5 1381 144.292 1381 143.875V143.25C1381 142.833 1380.79 142.625 1380.38 142.625H1378.25ZM1407.25 155.875H1409V156.25C1409 159.833 1408.71 161.625 1408.12 161.625C1407.54 161.625 1407.25 160.333 1407.25 157.75V155.875ZM1407.25 161.875H1409V163.75H1407.25V161.875ZM1424.38 1H1478.75C1501.5 1 1517.17 8.70833 1525.75 24.125C1532.92 36.2083 1536.5 56.1667 1536.5 84H1541.88V126.75H1489V122H1505.5V84H1500.75V68.375C1500.75 50.7917 1496.83 39.5833 1489 34.75C1484.33 32.0833 1476.92 30.75 1466.75 30.75H1459.5V83.125H1464.38V126.75H1428.5V86.5H1424.38V1ZM1501.62 113.5H1503.38V118H1504.38V119.5H1503.38V121.375H1501.62V119.5H1498.38V118.375C1500.54 115.375 1501.62 113.75 1501.62 113.5ZM1500.12 118H1501.62V116.25C1501.38 116.25 1500.88 116.833 1500.12 118ZM1466.12 117.75H1467.88C1468.12 117.75 1468.75 118.458 1469.75 119.875C1470.58 118.875 1471 118.167 1471 117.75H1473V118C1471.67 119.917 1471 121.125 1471 121.625L1473.38 125.5H1471C1471 124.833 1470.5 124.042 1469.5 123.125C1468.75 124.625 1468.12 125.417 1467.62 125.5H1465.88C1467.21 123.083 1468.08 121.792 1468.5 121.625L1466.12 117.75ZM1408.38 126.75H1424.62V132.5H1464.38V144.25H1489V132.5H1541.88V144.25H1505.5V176.125H1464.38V180H1424.88C1424.54 180 1424.38 179.792 1424.38 179.375V132.5H1408.38V126.75ZM1464.38 126.75H1489V132.5H1464.38V126.75ZM1541.88 126.75H1577.12V132.5H1541.88V126.75ZM1509.75 145.375H1511.88C1513.29 149.292 1514.17 152 1514.5 153.5H1513C1512.67 153.5 1512.38 152.917 1512.12 151.75H1509.75C1509.33 151.75 1509.04 152.333 1508.88 153.5H1507V153.25C1507 153.083 1507.92 150.458 1509.75 145.375ZM1516.62 145.375H1518.5L1520 150.5H1520.25C1520.25 150.167 1520.75 148.458 1521.75 145.375H1523.62C1523.62 146.042 1522.79 148.75 1521.12 153.5H1519.38C1518.88 153.5 1517.96 150.792 1516.62 145.375ZM1526.62 145.375H1528.75V153.5H1526.62V145.375ZM1532.25 145.375H1535.62C1538.21 145.375 1539.5 146.875 1539.5 149.875C1539.5 151.958 1538.21 153.167 1535.62 153.5H1532.25V145.375ZM1534.38 147.25V151.75H1536.25C1536.5 151.75 1536.88 151.333 1537.38 150.5V148.375C1537.38 148.125 1537 147.75 1536.25 147.25H1534.38ZM1510.62 147.875C1510.62 148.125 1510.42 148.917 1510 150.25H1511.5C1511.17 148.917 1511 148.125 1511 147.875H1510.62Z" fill="#42FF00"/>
</svg>
