<svg width="1403" height="180" viewBox="0 0 1403 180" fill="none" xmlns="http://www.w3.org/2000/svg">
<path d="M65.5 1H95.625C96.0417 2.75 105.833 35.3333 125 98.75H130.375V157.625H118V162.25H130.375V174.875H97.125V138.625H56.375V154H39.875V180H9.625V178.25H12V154H24.375V103.875H34.625L65.5 1ZM79.625 51.375V51.75C77.0417 65.9167 72.0417 88.3333 64.625 119H92.625V98.75H90.25C83.5833 69.75 80.25 53.9583 80.25 51.375H79.625ZM26.25 94.875H29C29 95.625 29.375 96.25 30.125 96.75C30.2083 96 30.625 95.375 31.375 94.875H33.5V95.125C32.0833 97.125 31.375 98.25 31.375 98.5C31.7083 99.25 32.5 100.458 33.75 102.125V102.75H32.625C31.4583 102.75 30.625 101.917 30.125 100.25C28.875 101.917 28.1667 102.75 28 102.75H26.5C26.0833 102.75 25.875 102.542 25.875 102.125C26.125 102.125 26.9583 101 28.375 98.75V98.25C26.9583 96.1667 26.25 95.0417 26.25 94.875ZM0.875 98.5H24.375V103.875H0.875V98.5ZM131.25 102.375H137.625V103.875L133.75 108.75H137.375C137.708 108.833 137.875 109.042 137.875 109.375V110C137.875 110.417 137.708 110.625 137.375 110.625H131V109.125L134.875 104.25H131.25V102.375ZM85.125 110.25H86.875V113.25L90.25 110.25H92V110.625L89.375 113.625C91.375 116.458 92.375 118.042 92.375 118.375H90.5C90.3333 118.375 89.4167 117.292 87.75 115.125C87.5 115.125 87.2083 115.417 86.875 116V118.375H85.125V110.25ZM131.875 113H135.5C137.333 113.25 138.25 114.167 138.25 115.75L137.375 117.25C137.958 117.917 138.25 119.125 138.25 120.875V121.125H136.375C136.208 119.125 135.917 118.125 135.5 118.125H133.375V121.125H131.875C131.458 121.125 131.25 120.917 131.25 120.5V113.625C131.333 113.208 131.542 113 131.875 113ZM133.375 114.75V116.625H135.5C135.917 116.625 136.125 116.417 136.125 116V114.75H133.375ZM131.25 123.5H137C137.417 123.583 137.625 123.792 137.625 124.125V124.75C137.625 125.167 137.417 125.375 137 125.375H135.25V131.75H133.125V125.375H131.25C130.833 125.375 130.625 125.167 130.625 124.75V124.125C130.708 123.708 130.917 123.5 131.25 123.5ZM130.625 134.125H132.125C132.708 134.125 133.333 135.833 134 139.25H134.25C135.25 136.25 135.75 134.542 135.75 134.125H137.875C136.292 139.542 135.292 142.25 134.875 142.25H133.125L130.625 134.125ZM65.5 141V142.625C65.5 142.958 63.875 143.625 60.625 144.625V145L65.5 146.75V148.625L57.875 145.875V143.75L65.5 141ZM18.625 144.625H19.625C20.2917 144.625 21.375 147.375 22.875 152.875H21.125C21.125 152.708 20.9167 152.083 20.5 151H17.75C17.5833 152.25 17.2917 152.875 16.875 152.875H15.375C17.125 147.375 18.2083 144.625 18.625 144.625ZM134.625 144.625H135.5C137.5 144.625 138.708 146.042 139.125 148.875C138.542 151.708 137.25 153.125 135.25 153.125C132.417 152.625 131 151.208 131 148.875C131.417 146.042 132.625 144.625 134.625 144.625ZM133.125 148.625V148.875C133.125 149.958 133.625 150.792 134.625 151.375H135.5C136.5 150.792 137 149.958 137 148.875V148.625C136.833 147.042 136.125 146.25 134.875 146.25C133.708 146.667 133.125 147.458 133.125 148.625ZM19 147.375C18.5833 148.708 18.375 149.417 18.375 149.5H19.875L19.25 147.375H19ZM97.125 177H137.375V180H97.125V177ZM208.625 0.875C233.625 0.875 249.375 8.66667 255.875 24.25C257.708 28.0833 258.625 30.625 258.625 31.875H242.875V36.625H259.75V36.375C259.75 35.5417 259.375 34.0417 258.625 31.875H287.5V36.625H260.125V37C261.542 43.6667 262.542 50.875 263.125 58.625C263.125 59.0417 252.167 59.8333 230.25 61V60.75C230.25 40.8333 223.417 30.875 209.75 30.875H206.25C196 30.875 189.75 35.2083 187.5 43.875C185.667 51.2083 184.75 60.8333 184.75 72.75V97.125L184.5 100.75H173.125V106.5H184.5V149.875H232.75V104.75H260.375V149.875H245V177.625H212.875V180H187.875V177.625H162.5V163.75H179.375V157.75H154.125V137.25H143.25V112H149C148.75 101.5 148.625 93.25 148.625 87.25C148.625 60 149.958 42.8333 152.625 35.75C155.042 27.5833 159.042 20.5417 164.625 14.625C174.542 5.45833 189.208 0.875 208.625 0.875ZM186.875 140.875H188.375V147.125H192V149H186.875C186.542 149 186.375 148.792 186.375 148.375V141.5C186.375 141.083 186.542 140.875 186.875 140.875ZM224.5 140.875H226.375C227.375 141.708 227.875 142.5 227.875 143.25C228.042 143.25 228.75 142.458 230 140.875H231.5V141.5C230.083 143.333 229.375 144.625 229.375 145.375C229.625 145.375 230.417 146.458 231.75 148.625V149H230L227.875 146.625C227.125 148.042 226.542 148.833 226.125 149H224.25C224.667 148.167 225.583 146.75 227 144.75L224.5 141.125V140.875ZM249.25 151.75C251.25 152.25 252.25 152.833 252.25 153.5V154.75H251L249.875 153.5H248.625C248.208 153.583 248 153.792 248 154.125V154.75C251.083 155.333 252.625 156 252.625 156.75V157.75C252.625 159.333 251.708 160.125 249.875 160.125H248.625C247.542 160.125 246.667 159.542 246 158.375V157.125H247.75C247.75 158.125 248.333 158.625 249.5 158.625H249.875C250.125 158.625 250.417 158.333 250.75 157.75C250.75 157.5 249.333 156.792 246.5 155.625L246.25 155V153.5C246.25 152.833 247.25 152.25 249.25 151.75ZM341.125 0.875C366.125 0.875 381.875 8.66667 388.375 24.25C390.208 28.0833 391.125 30.625 391.125 31.875H375.375V36.625H392.25V36.375C392.25 35.5417 391.875 34.0417 391.125 31.875H420V36.625H392.625V37C394.042 43.6667 395.042 50.875 395.625 58.625C395.625 59.0417 384.667 59.8333 362.75 61V60.75C362.75 40.8333 355.917 30.875 342.25 30.875H338.75C328.5 30.875 322.25 35.2083 320 43.875C318.167 51.2083 317.25 60.8333 317.25 72.75V97.125L317 100.75H305.625V106.5H317V149.875H365.25V104.75H392.875V149.875H377.5V177.625H345.375V180H320.375V177.625H295V163.75H311.875V157.75H286.625V137.25H275.75V112H281.5C281.25 101.5 281.125 93.25 281.125 87.25C281.125 60 282.458 42.8333 285.125 35.75C287.542 27.5833 291.542 20.5417 297.125 14.625C307.042 5.45833 321.708 0.875 341.125 0.875ZM319.375 140.875H320.875V147.125H324.5V149H319.375C319.042 149 318.875 148.792 318.875 148.375V141.5C318.875 141.083 319.042 140.875 319.375 140.875ZM357 140.875H358.875C359.875 141.708 360.375 142.5 360.375 143.25C360.542 143.25 361.25 142.458 362.5 140.875H364V141.5C362.583 143.333 361.875 144.625 361.875 145.375C362.125 145.375 362.917 146.458 364.25 148.625V149H362.5L360.375 146.625C359.625 148.042 359.042 148.833 358.625 149H356.75C357.167 148.167 358.083 146.75 359.5 144.75L357 141.125V140.875ZM381.75 151.75C383.75 152.25 384.75 152.833 384.75 153.5V154.75H383.5L382.375 153.5H381.125C380.708 153.583 380.5 153.792 380.5 154.125V154.75C383.583 155.333 385.125 156 385.125 156.75V157.75C385.125 159.333 384.208 160.125 382.375 160.125H381.125C380.042 160.125 379.167 159.542 378.5 158.375V157.125H380.25C380.25 158.125 380.833 158.625 382 158.625H382.375C382.625 158.625 382.917 158.333 383.25 157.75C383.25 157.5 381.833 156.792 379 155.625L378.75 155V153.5C378.75 152.833 379.75 152.25 381.75 151.75ZM419.375 1H507.625V30.25C507.625 30.6667 507.417 30.875 507 30.875H454.625V69.75H501.625V70C501.625 71.1667 501.417 77.5 501 89C500.833 89 500.75 89.125 500.75 89.375H502.875V98.375H462.125V135.125H451.25V138.75H462.125V149.875H508.25V154.125H504.625V176.125H449.5V180H423.25V115.875H419.375V93.25H390.75V89.375H419.375V1ZM419.625 89.375V93.25H434.375V89.375H419.625ZM464.875 140.875H467V143.875H467.25C467.25 143.292 468.167 142.292 470 140.875H472.125L469.125 144.125L472.375 149H470.25C468.667 146.75 467.792 145.625 467.625 145.625C467.208 145.708 467 145.917 467 146.25V149H464.875V140.875ZM475.375 140.875H479.625C480.958 140.875 481.875 141.667 482.375 143.25C482.375 143.5 481.958 144.208 481.125 145.375C481.708 145.375 482.125 146.583 482.375 149H480.875C480.458 149 480.125 148 479.875 146H477.5V149H475.375V140.875ZM489 140.875H490.125C491.958 140.875 493.083 142.083 493.5 144.5V145.625C493.5 146.292 493.208 147 492.625 147.75V148.125C493.208 148.125 493.5 148.292 493.5 148.625C493.5 148.958 493.208 149.292 492.625 149.625C492.292 149.625 491.958 149.292 491.625 148.625L490.125 149H489C487 149 485.875 147.5 485.625 144.5C486.208 142.083 487.333 140.875 489 140.875ZM487.75 144.5V145.375C487.75 146.792 488.458 147.5 489.875 147.5H490.125V147.125H489.625V146.875C489.625 146.542 489.917 146.25 490.5 146L491.375 146.5C491.375 146.417 491.458 145.833 491.625 144.75C491.542 143.167 490.75 142.375 489.25 142.375C488.25 142.625 487.75 143.333 487.75 144.5ZM477.5 142.625V144.5H479.625C480.042 144.5 480.25 144.292 480.25 143.875V143.25C480.25 142.833 480.042 142.625 479.625 142.625H477.5ZM506.5 155.875H508.25V156.25C508.25 159.833 507.958 161.625 507.375 161.625C506.792 161.625 506.5 160.333 506.5 157.75V155.875ZM506.5 161.875H508.25V163.75H506.5V161.875ZM575.25 1.375C595.083 1.375 608.375 7.75 615.125 20.5C619.792 30.1667 622.125 39.625 622.125 48.875H621.875C608.292 50.0417 599 50.625 594 50.625C594 44.0417 591.958 38.5 587.875 34C584.042 31.8333 580.5 30.75 577.25 30.75H572.25C563.75 30.75 558.583 34.0417 556.75 40.625C556.333 42.5417 556.125 44.0417 556.125 45.125V47.75C556.125 57.0833 561.042 63.8333 570.875 68C571.708 68.75 578.542 71.875 591.375 77.375C598.208 80.5417 604.542 84.4583 610.375 89.125V89.375H579V92.875H620.375V97.875H625.625V152.125H615.375V180H535.875V152.125H517.125V133.375H527.75V126.875H517.125V122.5H553.5V152.125H590.75V107.5H562.875V92.875H528.25V89.375H545V89.125C530.333 79.375 523 65.5833 523 47.75V45.375C523 30.4583 527.583 19.125 536.75 11.375C545.083 4.70833 557.917 1.375 575.25 1.375ZM620.375 89.375H633V92.875H620.375V89.375ZM505.125 126.875H517.125V133.375H505.125V126.875ZM585.25 126.875H589C589.417 126.958 589.625 127.167 589.625 127.5V128.375H586.375V129.5H589.25V130.375C589.25 130.792 589.083 131 588.75 131H586.375V132.25H589.625V133.125C589.625 133.458 589.417 133.625 589 133.625H585.25C584.833 133.625 584.625 133.458 584.625 133.125V127.5C584.708 127.083 584.917 126.875 585.25 126.875ZM583.75 135.75H584.875C585.042 135.75 585.75 136.5 587 138C587.583 136.5 588.042 135.75 588.375 135.75H589.25C589.667 135.75 589.875 135.917 589.875 136.25C588.125 138.25 587.25 140.333 587.25 142.5H586.375C585.958 142.5 585.667 141.333 585.5 139C584.333 137.417 583.75 136.333 583.75 135.75ZM582.875 144.5H584C584.5 144.5 585 145.792 585.5 148.375H586.125C586.625 145.792 587.083 144.5 587.5 144.5H588.75C589.083 144.583 589.25 144.792 589.25 145.125V150.625C589.25 151.042 589.083 151.25 588.75 151.25H587.875V147.5H587.5L586.375 151.25H585.5C585.083 151.25 584.583 150 584 147.5H583.75V151.25H582.875C582.458 151.25 582.25 151.042 582.25 150.625V145.125C582.333 144.708 582.542 144.5 582.875 144.5ZM617.125 153.625H620.125C621.708 153.625 622.5 154.417 622.5 156C622.083 156 621.875 156.167 621.875 156.5C622.458 157.25 622.75 157.958 622.75 158.625C622.25 159.792 621.167 160.375 619.5 160.375H617.75C617.333 160.375 617.125 160.167 617.125 159.75V153.625ZM618.875 155.125V156.25H620.125C620.458 156.25 620.625 156.042 620.625 155.625V155.125H618.875ZM618.875 157.375V158.875H620.375C620.792 158.875 621 158.667 621 158.25V158C621 157.583 620.792 157.375 620.375 157.375H618.875ZM617.125 162.375H618.375C618.792 162.375 619.667 163.75 621 166.5H621.25V162.375H622.75V168.5C622.75 168.917 622.542 169.125 622.125 169.125H621.5C621.333 169.125 620.375 167.875 618.625 165.375V168.5C618.625 168.917 618.417 169.125 618 169.125H617.75C617.333 169.125 617.125 168.917 617.125 168.5V162.375ZM707.375 1H761.75C784.5 1 800.167 8.70833 808.75 24.125C815.917 36.2083 819.5 56.1667 819.5 84H824.875V126.75H772V122H788.5V84H783.75V68.375C783.75 50.7917 779.833 39.5833 772 34.75C767.333 32.0833 759.917 30.75 749.75 30.75H742.5V83.125H747.375V126.75H711.5V86.5H707.375V1ZM784.625 113.5H786.375V118H787.375V119.5H786.375V121.375H784.625V119.5H781.375V118.375C783.542 115.375 784.625 113.75 784.625 113.5ZM783.125 118H784.625V116.25C784.375 116.25 783.875 116.833 783.125 118ZM749.125 117.75H750.875C751.125 117.75 751.75 118.458 752.75 119.875C753.583 118.875 754 118.167 754 117.75H756V118C754.667 119.917 754 121.125 754 121.625L756.375 125.5H754C754 124.833 753.5 124.042 752.5 123.125C751.75 124.625 751.125 125.417 750.625 125.5H748.875C750.208 123.083 751.083 121.792 751.5 121.625L749.125 117.75ZM691.375 126.75H707.625V132.5H747.375V144.25H772V132.5H824.875V144.25H788.5V176.125H747.375V180H707.875C707.542 180 707.375 179.792 707.375 179.375V132.5H691.375V126.75ZM747.375 126.75H772V132.5H747.375V126.75ZM824.875 126.75H860.125V132.5H824.875V126.75ZM792.75 145.375H794.875C796.292 149.292 797.167 152 797.5 153.5H796C795.667 153.5 795.375 152.917 795.125 151.75H792.75C792.333 151.75 792.042 152.333 791.875 153.5H790V153.25C790 153.083 790.917 150.458 792.75 145.375ZM799.625 145.375H801.5L803 150.5H803.25C803.25 150.167 803.75 148.458 804.75 145.375H806.625C806.625 146.042 805.792 148.75 804.125 153.5H802.375C801.875 153.5 800.958 150.792 799.625 145.375ZM809.625 145.375H811.75V153.5H809.625V145.375ZM815.25 145.375H818.625C821.208 145.375 822.5 146.875 822.5 149.875C822.5 151.958 821.208 153.167 818.625 153.5H815.25V145.375ZM817.375 147.25V151.75H819.25C819.5 151.75 819.875 151.333 820.375 150.5V148.375C820.375 148.125 820 147.75 819.25 147.25H817.375ZM793.625 147.875C793.625 148.125 793.417 148.917 793 150.25H794.5C794.167 148.917 794 148.125 794 147.875H793.625ZM847.625 1H935.875V30.25C935.875 30.6667 935.667 30.875 935.25 30.875H882.875V69.75H929.875V70C929.875 71.1667 929.667 77.5 929.25 89C929.083 89 929 89.125 929 89.375H931.125V98.375H890.375V135.125H879.5V138.75H890.375V149.875H936.5V154.125H932.875V176.125H877.75V180H851.5V115.875H847.625V93.25H819V89.375H847.625V1ZM847.875 89.375V93.25H862.625V89.375H847.875ZM893.125 140.875H895.25V143.875H895.5C895.5 143.292 896.417 142.292 898.25 140.875H900.375L897.375 144.125L900.625 149H898.5C896.917 146.75 896.042 145.625 895.875 145.625C895.458 145.708 895.25 145.917 895.25 146.25V149H893.125V140.875ZM903.625 140.875H907.875C909.208 140.875 910.125 141.667 910.625 143.25C910.625 143.5 910.208 144.208 909.375 145.375C909.958 145.375 910.375 146.583 910.625 149H909.125C908.708 149 908.375 148 908.125 146H905.75V149H903.625V140.875ZM917.25 140.875H918.375C920.208 140.875 921.333 142.083 921.75 144.5V145.625C921.75 146.292 921.458 147 920.875 147.75V148.125C921.458 148.125 921.75 148.292 921.75 148.625C921.75 148.958 921.458 149.292 920.875 149.625C920.542 149.625 920.208 149.292 919.875 148.625L918.375 149H917.25C915.25 149 914.125 147.5 913.875 144.5C914.458 142.083 915.583 140.875 917.25 140.875ZM916 144.5V145.375C916 146.792 916.708 147.5 918.125 147.5H918.375V147.125H917.875V146.875C917.875 146.542 918.167 146.25 918.75 146L919.625 146.5C919.625 146.417 919.708 145.833 919.875 144.75C919.792 143.167 919 142.375 917.5 142.375C916.5 142.625 916 143.333 916 144.5ZM905.75 142.625V144.5H907.875C908.292 144.5 908.5 144.292 908.5 143.875V143.25C908.5 142.833 908.292 142.625 907.875 142.625H905.75ZM934.75 155.875H936.5V156.25C936.5 159.833 936.208 161.625 935.625 161.625C935.042 161.625 934.75 160.333 934.75 157.75V155.875ZM934.75 161.875H936.5V163.75H934.75V161.875ZM950 0.875H986.625C987.125 0.875 991.042 10.4583 998.375 29.625C999.042 30.2917 1006.71 49.1667 1021.38 86.25H1030.75V0.875H1062.88V102.5H1066.5V142.125H1053.5V149.75H1066.5V173.375H1018.38V143.375H1009.88C998.375 115.292 990.625 95.9167 986.625 85.25V55H982.125V147H974.875V178.75H944.875V110.375H950.375V110.125C950.125 51.125 950 14.7083 950 0.875ZM1064.38 56.5H1067.75C1069.33 56.5 1070.12 57.3333 1070.12 59C1070.12 59.5833 1069.83 59.875 1069.25 59.875C1069.83 60.625 1070.12 61.5417 1070.12 62.625V63.25H1068.62C1068.46 61.5833 1068.17 60.75 1067.75 60.75H1066.25V63.25H1064.38V56.5ZM1066.25 58V59.625H1067.75C1068.17 59.625 1068.38 59.4167 1068.38 59V58H1066.25ZM1064.38 65.625H1069.5V67.125H1067.75V72.25H1065.88V67.125H1064.38C1063.96 67.125 1063.75 66.9167 1063.75 66.5V66.25C1063.83 65.8333 1064.04 65.625 1064.38 65.625ZM1063.75 74.75H1065C1065.5 74.75 1066 76.0417 1066.5 78.625H1067.12L1068 74.75H1069.88L1067.75 81.375H1066.25C1065.75 81.375 1064.92 79.1667 1063.75 74.75ZM1064.12 83.75H1065.88C1065.96 84.5 1066.38 85.125 1067.12 85.625C1067.79 84.375 1068.29 83.75 1068.62 83.75H1069.88V84.125C1068.62 85.9583 1068 87.0417 1068 87.375C1068.33 87.4583 1069.04 88.4583 1070.12 90.375H1068C1068 89.7917 1067.62 89.2083 1066.88 88.625C1066.12 89.7917 1065.58 90.375 1065.25 90.375H1063.75C1065.17 88.2917 1065.88 87.2083 1065.88 87.125C1064.71 85.2083 1064.12 84.0833 1064.12 83.75ZM1003.88 86.25V92.875H1023.88C1022.29 88.4583 1021.29 86.25 1020.88 86.25H1003.88ZM1031.12 86.25V92.875H1024.12C1028.38 103.542 1030.92 110.5 1031.75 113.75H1032V112.875C1031.42 101.958 1031.12 95.2917 1031.12 92.875H1045.62V86.25H1031.12ZM1064.38 92.875H1067.38C1069.46 93.125 1070.5 94.125 1070.5 95.875V96.125C1070.5 98.375 1069.58 99.5 1067.75 99.5H1064.38V92.875ZM1066.25 94.375V98.25C1067.83 98.25 1068.62 97.6667 1068.62 96.5V96.125C1068.62 95.125 1068.33 94.5417 1067.75 94.375H1066.25ZM1011.75 145.25H1016.25V146.75H1013V147.875H1015.62C1016.04 147.958 1016.25 148.167 1016.25 148.5V148.875C1016.25 149.292 1016.04 149.5 1015.62 149.5H1013V150.625H1016C1016.42 150.708 1016.62 150.917 1016.62 151.25V151.5C1016.62 151.917 1016.42 152.125 1016 152.125H1011.75C1011.33 152.125 1011.12 151.917 1011.12 151.5V145.75C1011.21 145.417 1011.42 145.25 1011.75 145.25ZM975.375 148.5H977.25C978.083 151 978.5 152.417 978.5 152.75H978.75C979.25 149.917 979.75 148.5 980.25 148.5H981.5V148.875C980.25 153.125 979.458 155.25 979.125 155.25H977.5C977.5 154.667 976.792 152.417 975.375 148.5ZM1014.12 154.25H1014.75C1015.17 154.333 1015.38 154.542 1015.38 154.875V158.875C1015.38 159.958 1014.88 160.75 1013.88 161.25H1013C1011.58 161.25 1010.88 160.542 1010.88 159.125V158.5H1012.38C1012.38 159.333 1012.58 159.75 1013 159.75H1013.5V154.875C1013.58 154.458 1013.79 154.25 1014.12 154.25ZM1011.75 163.375H1012.38C1012.79 163.375 1013 164.167 1013 165.75L1015.62 163.375H1017.25V163.625L1014.75 166.375C1015 166.375 1015.92 167.583 1017.5 170L1016.88 170.375H1016C1015.75 170.375 1014.92 169.458 1013.5 167.625C1013.17 167.625 1012.88 168.542 1012.62 170.375H1011.75C1011.33 170.375 1011.12 170.167 1011.12 169.75V164C1011.21 163.583 1011.42 163.375 1011.75 163.375ZM1018.38 176.625H1076.5V180H1018.38V176.625ZM1090.25 0.875H1124C1124.33 0.958333 1124.5 1.16667 1124.5 1.5V88.5C1124.5 88.9167 1124.33 89.125 1124 89.125H1120V179.375C1120 179.792 1119.79 180 1119.38 180H1090.25C1089.83 180 1089.62 179.792 1089.62 179.375V87H1080.62C1080.21 87 1080 86.7917 1080 86.375V82.5C1080.08 82.0833 1080.29 81.875 1080.62 81.875H1089.62V1.5C1089.71 1.08333 1089.92 0.875 1090.25 0.875ZM1089.88 81.875V87H1107.12V81.875H1089.88ZM1145.62 1H1233.88V30.25C1233.88 30.6667 1233.67 30.875 1233.25 30.875H1180.88V69.75H1227.88V70C1227.88 71.1667 1227.67 77.5 1227.25 89C1227.08 89 1227 89.125 1227 89.375H1229.12V98.375H1188.38V135.125H1177.5V138.75H1188.38V149.875H1234.5V154.125H1230.88V176.125H1175.75V180H1149.5V115.875H1145.62V93.25H1117V89.375H1145.62V1ZM1145.88 89.375V93.25H1160.62V89.375H1145.88ZM1191.12 140.875H1193.25V143.875H1193.5C1193.5 143.292 1194.42 142.292 1196.25 140.875H1198.38L1195.38 144.125L1198.62 149H1196.5C1194.92 146.75 1194.04 145.625 1193.88 145.625C1193.46 145.708 1193.25 145.917 1193.25 146.25V149H1191.12V140.875ZM1201.62 140.875H1205.88C1207.21 140.875 1208.12 141.667 1208.62 143.25C1208.62 143.5 1208.21 144.208 1207.38 145.375C1207.96 145.375 1208.38 146.583 1208.62 149H1207.12C1206.71 149 1206.38 148 1206.12 146H1203.75V149H1201.62V140.875ZM1215.25 140.875H1216.38C1218.21 140.875 1219.33 142.083 1219.75 144.5V145.625C1219.75 146.292 1219.46 147 1218.88 147.75V148.125C1219.46 148.125 1219.75 148.292 1219.75 148.625C1219.75 148.958 1219.46 149.292 1218.88 149.625C1218.54 149.625 1218.21 149.292 1217.88 148.625L1216.38 149H1215.25C1213.25 149 1212.12 147.5 1211.88 144.5C1212.46 142.083 1213.58 140.875 1215.25 140.875ZM1214 144.5V145.375C1214 146.792 1214.71 147.5 1216.12 147.5H1216.38V147.125H1215.88V146.875C1215.88 146.542 1216.17 146.25 1216.75 146L1217.62 146.5C1217.62 146.417 1217.71 145.833 1217.88 144.75C1217.79 143.167 1217 142.375 1215.5 142.375C1214.5 142.625 1214 143.333 1214 144.5ZM1203.75 142.625V144.5H1205.88C1206.29 144.5 1206.5 144.292 1206.5 143.875V143.25C1206.5 142.833 1206.29 142.625 1205.88 142.625H1203.75ZM1232.75 155.875H1234.5V156.25C1234.5 159.833 1234.21 161.625 1233.62 161.625C1233.04 161.625 1232.75 160.333 1232.75 157.75V155.875ZM1232.75 161.875H1234.5V163.75H1232.75V161.875ZM1249.88 1H1304.25C1327 1 1342.67 8.70833 1351.25 24.125C1358.42 36.2083 1362 56.1667 1362 84H1367.38V126.75H1314.5V122H1331V84H1326.25V68.375C1326.25 50.7917 1322.33 39.5833 1314.5 34.75C1309.83 32.0833 1302.42 30.75 1292.25 30.75H1285V83.125H1289.88V126.75H1254V86.5H1249.88V1ZM1327.12 113.5H1328.88V118H1329.88V119.5H1328.88V121.375H1327.12V119.5H1323.88V118.375C1326.04 115.375 1327.12 113.75 1327.12 113.5ZM1325.62 118H1327.12V116.25C1326.88 116.25 1326.38 116.833 1325.62 118ZM1291.62 117.75H1293.38C1293.62 117.75 1294.25 118.458 1295.25 119.875C1296.08 118.875 1296.5 118.167 1296.5 117.75H1298.5V118C1297.17 119.917 1296.5 121.125 1296.5 121.625L1298.88 125.5H1296.5C1296.5 124.833 1296 124.042 1295 123.125C1294.25 124.625 1293.62 125.417 1293.12 125.5H1291.38C1292.71 123.083 1293.58 121.792 1294 121.625L1291.62 117.75ZM1233.88 126.75H1250.12V132.5H1289.88V144.25H1314.5V132.5H1367.38V144.25H1331V176.125H1289.88V180H1250.38C1250.04 180 1249.88 179.792 1249.88 179.375V132.5H1233.88V126.75ZM1289.88 126.75H1314.5V132.5H1289.88V126.75ZM1367.38 126.75H1402.62V132.5H1367.38V126.75ZM1335.25 145.375H1337.38C1338.79 149.292 1339.67 152 1340 153.5H1338.5C1338.17 153.5 1337.88 152.917 1337.62 151.75H1335.25C1334.83 151.75 1334.54 152.333 1334.38 153.5H1332.5V153.25C1332.5 153.083 1333.42 150.458 1335.25 145.375ZM1342.12 145.375H1344L1345.5 150.5H1345.75C1345.75 150.167 1346.25 148.458 1347.25 145.375H1349.12C1349.12 146.042 1348.29 148.75 1346.62 153.5H1344.88C1344.38 153.5 1343.46 150.792 1342.12 145.375ZM1352.12 145.375H1354.25V153.5H1352.12V145.375ZM1357.75 145.375H1361.12C1363.71 145.375 1365 146.875 1365 149.875C1365 151.958 1363.71 153.167 1361.12 153.5H1357.75V145.375ZM1359.88 147.25V151.75H1361.75C1362 151.75 1362.38 151.333 1362.88 150.5V148.375C1362.88 148.125 1362.5 147.75 1361.75 147.25H1359.88ZM1336.12 147.875C1336.12 148.125 1335.92 148.917 1335.5 150.25H1337C1336.67 148.917 1336.5 148.125 1336.5 147.875H1336.12Z" fill="#FF0000"/>
</svg>
