<svg width="569" height="90" viewBox="0 0 569 90" fill="none" xmlns="http://www.w3.org/2000/svg">
<path d="M8.4375 0.5H35.625C47 0.5 54.8333 4.35417 59.125 12.0625C62.7083 18.1042 64.5 28.0833 64.5 42H67.1875V63.375H40.75V61H49V42H46.625V34.1875C46.625 25.3958 44.6667 19.7917 40.75 17.375C38.4167 16.0417 34.7083 15.375 29.625 15.375H26V41.5625H28.4375V63.375H10.5V43.25H8.4375V0.5ZM47.0625 56.75H47.9375V59H48.4375V59.75H47.9375V60.6875H47.0625V59.75H45.4375V59.1875C46.5208 57.6875 47.0625 56.875 47.0625 56.75ZM46.3125 59H47.0625V58.125C46.9375 58.125 46.6875 58.4167 46.3125 59ZM29.3125 58.875H30.1875C30.3125 58.875 30.625 59.2292 31.125 59.9375C31.5417 59.4375 31.75 59.0833 31.75 58.875H32.75V59C32.0833 59.9583 31.75 60.5625 31.75 60.8125L32.9375 62.75H31.75C31.75 62.4167 31.5 62.0208 31 61.5625C30.625 62.3125 30.3125 62.7083 30.0625 62.75H29.1875C29.8542 61.5417 30.2917 60.8958 30.5 60.8125L29.3125 58.875ZM0.4375 63.375H8.5625V66.25H28.4375V72.125H40.75V66.25H67.1875V72.125H49V88.0625H28.4375V90H8.6875C8.52083 90 8.4375 89.8958 8.4375 89.6875V66.25H0.4375V63.375ZM28.4375 63.375H40.75V66.25H28.4375V63.375ZM67.1875 63.375H84.8125V66.25H67.1875V63.375ZM51.125 72.6875H52.1875C52.8958 74.6458 53.3333 76 53.5 76.75H52.75C52.5833 76.75 52.4375 76.4583 52.3125 75.875H51.125C50.9167 75.875 50.7708 76.1667 50.6875 76.75H49.75V76.625C49.75 76.5417 50.2083 75.2292 51.125 72.6875ZM54.5625 72.6875H55.5L56.25 75.25H56.375C56.375 75.0833 56.625 74.2292 57.125 72.6875H58.0625C58.0625 73.0208 57.6458 74.375 56.8125 76.75H55.9375C55.6875 76.75 55.2292 75.3958 54.5625 72.6875ZM59.5625 72.6875H60.625V76.75H59.5625V72.6875ZM62.375 72.6875H64.0625C65.3542 72.6875 66 73.4375 66 74.9375C66 75.9792 65.3542 76.5833 64.0625 76.75H62.375V72.6875ZM63.4375 73.625V75.875H64.375C64.5 75.875 64.6875 75.6667 64.9375 75.25V74.1875C64.9375 74.0625 64.75 73.875 64.375 73.625H63.4375ZM51.5625 73.9375C51.5625 74.0625 51.4583 74.4583 51.25 75.125H52C51.8333 74.4583 51.75 74.0625 51.75 73.9375H51.5625ZM76.6875 1.0625H120.5V15.625C120.5 15.8333 120.396 15.9375 120.188 15.9375H94.1875V35.1875H117.5V35.375C117.5 35.9167 117.417 39.0625 117.25 44.8125C117.125 44.8125 117.062 44.8542 117.062 44.9375H118.125V49.4375H97.9375V67.6875H92.5V69.5H97.9375V75.0625H120.812V77.125H119V88.0625H91.625V90H78.625V58.125H76.6875V46.875H62.4375V44.9375H76.6875V1.0625ZM76.8125 44.9375V46.875H84.125V44.9375H76.8125ZM132 0.625H159.25C170.583 0.625 178.375 4.47917 182.625 12.1875C186.292 18.1875 188.125 28.1458 188.125 42.0625H190.812V63.4375H164.312V61H172.625V42.0625H170.188V34.25C170.188 25.4583 168.229 19.8542 164.312 17.4375C162.021 16.1458 158.333 15.5 153.25 15.5H149.562V41.625H152.062V63.4375H134.188V43.25H132V0.625ZM124.062 63.4375H132.125V66.25H152.062V72.125H164.312V66.25H190.812V72.125H172.625V88.0625H152.062V90H132.312C132.104 90 132 89.8958 132 89.6875V66.25H124.062V63.4375ZM152.062 63.4375H164.312V66.25H152.062V63.4375ZM190.812 63.4375H208.375V66.25H190.812V63.4375ZM223.062 0.6875C232.979 0.6875 239.625 3.875 243 10.25C245.333 15.0833 246.5 19.8125 246.5 24.4375H246.375C239.583 25.0208 234.938 25.3125 232.438 25.3125C232.438 22.0208 231.417 19.25 229.375 17C227.458 15.9167 225.688 15.375 224.062 15.375H221.562C217.312 15.375 214.729 17.0208 213.812 20.3125C213.604 21.2708 213.5 22.0208 213.5 22.5625V23.875C213.5 28.5417 215.958 31.9167 220.875 34C221.292 34.375 224.708 35.9375 231.125 38.6875C234.542 40.2708 237.708 42.2292 240.625 44.5625V44.6875H224.938V46.4375H245.625V48.9375H248.25V76.0625H243.125V90H203.375V76.0625H194V66.6875H199.312V63.4375H194V61.25H212.188V76.0625H230.812V53.75H216.875V46.4375H199.562V44.6875H207.938V44.5625C200.604 39.6875 196.938 32.7917 196.938 23.875V22.6875C196.938 15.2292 199.229 9.5625 203.812 5.6875C207.979 2.35417 214.396 0.6875 223.062 0.6875ZM245.625 44.6875H251.938V46.4375H245.625V44.6875ZM188 63.4375H194V66.6875H188V63.4375ZM258.812 1.0625H302.625V15.625C302.625 15.8333 302.521 15.9375 302.312 15.9375H276.312V35.1875H299.625V35.375C299.625 35.9167 299.542 39.0625 299.375 44.8125C299.25 44.8125 299.188 44.8542 299.188 44.9375H300.25V49.4375H280.062V67.6875H274.625V69.5H280.062V75.0625H302.938V77.125H301.125V88.0625H273.75V90H260.75V58.125H258.812V46.875H244.562V44.9375H258.812V1.0625ZM258.938 44.9375V46.875H266.25V44.9375H258.938ZM344.625 0.4375C357.125 0.4375 364.979 4.35417 368.188 12.1875C369.146 14.0625 369.625 15.3125 369.625 15.9375H361.75V18.3125H370.25V18.1875C370.25 17.7708 370.042 17.0208 369.625 15.9375H384.062V18.3125H370.375V18.5C371.083 21.875 371.583 25.4792 371.875 29.3125C371.875 29.5208 366.396 29.9167 355.438 30.5V30.375C355.438 20.4583 352.042 15.5 345.25 15.5H343.375C338.292 15.5 335.188 17.6667 334.062 22C333.188 25.625 332.75 30.4375 332.75 36.4375V48.625L332.562 50.4375H326.812V53.25H332.562V74.9375H356.625V52.375H370.5V74.9375H362.812V88.8125H346.75V90H334.25V88.8125H321.562V81.875H330V78.875H317.312V68.625H311.938V55.9375H314.812C314.688 50.7708 314.625 46.6667 314.625 43.625C314.625 30 315.271 21.4167 316.562 17.875C317.854 13.7917 319.875 10.2917 322.625 7.375C327.542 2.75 334.875 0.4375 344.625 0.4375ZM441.938 0.4375C454.438 0.4375 462.312 4.33333 465.562 12.125C466.479 14.0417 466.938 15.3125 466.938 15.9375H459.062V18.3125H467.5V18.1875C467.5 17.7708 467.312 17.0208 466.938 15.9375H481.375V18.3125H467.688V18.5C468.396 21.8333 468.896 25.4375 469.188 29.3125C469.188 29.5208 463.708 29.9167 452.75 30.5V30.375C452.75 20.4167 449.333 15.4375 442.5 15.4375H440.75C435.625 15.4375 432.5 17.6042 431.375 21.9375C430.458 25.6042 430 30.4167 430 36.375V48.5625L429.875 50.375H424.188V53.25H429.875V74.9375H454V52.375H467.812V74.9375H460.125V88.8125H444.062V90H431.562V88.8125H418.875V81.875H427.312V78.875H414.688V68.625H409.25V56H412.125C412 50.75 411.938 46.625 411.938 43.625C411.938 30 412.604 21.4167 413.938 17.875C415.146 13.7917 417.146 10.2708 419.938 7.3125C424.896 2.72917 432.229 0.4375 441.938 0.4375ZM431.062 70.4375H431.812V73.5625H433.625V74.5H431.062C430.896 74.5 430.812 74.3958 430.812 74.1875V70.75C430.812 70.5417 430.896 70.4375 431.062 70.4375ZM449.875 70.4375H450.812C451.312 70.8542 451.562 71.25 451.562 71.625C451.646 71.625 452 71.2292 452.625 70.4375H453.375V70.75C452.667 71.6667 452.312 72.3125 452.312 72.6875C452.438 72.6875 452.833 73.2292 453.5 74.3125V74.5H452.625L451.562 73.3125C451.188 74.0208 450.896 74.4167 450.688 74.5H449.75C449.958 74.0833 450.417 73.375 451.125 72.375L449.875 70.5625V70.4375ZM462.25 75.875C463.25 76.125 463.75 76.4167 463.75 76.75V77.375H463.125L462.562 76.75H461.938C461.729 76.7917 461.625 76.8958 461.625 77.0625V77.375C463.167 77.6667 463.938 78 463.938 78.375V78.875C463.938 79.6667 463.479 80.0625 462.562 80.0625H461.938C461.396 80.0625 460.958 79.7708 460.625 79.1875V78.5625H461.5C461.5 79.0625 461.792 79.3125 462.375 79.3125H462.562C462.688 79.3125 462.833 79.1667 463 78.875C463 78.75 462.292 78.3958 460.875 77.8125L460.75 77.5V76.75C460.75 76.4167 461.25 76.125 462.25 75.875ZM470.625 0.4375H523.125V15.375H505.75V77.3125H513.625V79.125H505.75V85.9375H501.062V88.3125H504.375V90H488.438C488.229 90 488.125 89.8958 488.125 89.6875V15.375H470.625V0.4375ZM499.562 77.3125V79.125H505.625V77.3125H499.562ZM523.812 0.5H568.75V15.375H541.625V36.625H565L565.312 36.8125L565.125 37.125C565.042 40.125 565 41.875 565 42.375H562.438V42.5C562.438 43.5833 562.333 45.8958 562.125 49.4375H564.5C564.5 51.1458 564.354 52 564.062 52H547.625V55.0625H539.062V56.6875H541.625V64.5H550.188V65.875H541.625V87.5625L541.5 88.625H532.25V90H524.125C523.917 90 523.812 89.8958 523.812 89.6875V87.4375L524 85.9375H528.375V83.6875H523.812V75.0625H525.938V43.4375H529.562V41.1875H523.812V0.5ZM522.312 59.875H522.938C523.146 59.875 523.25 59.9792 523.25 60.1875V62.25C523.292 62.875 523.438 63.1875 523.688 63.1875H524.312C524.438 63.1875 524.583 63.0417 524.75 62.75V60.1875C524.792 59.9792 524.896 59.875 525.062 59.875H525.625V62.75C525.625 63.625 525.021 64.0625 523.812 64.0625C522.812 63.9375 522.312 63.5 522.312 62.75V59.875ZM541.938 61.375H542.062C543.646 62.0833 544.562 62.4375 544.812 62.4375V63.3125L542.062 64.25H541.938V63.75C541.938 63.625 542.542 63.3333 543.75 62.875V62.75C543.542 62.75 542.938 62.5417 541.938 62.125V61.375ZM533.312 64.5V65.875H541.5V64.5H533.312ZM523.562 65.125H523.688C524.771 65.125 525.312 65.5833 525.312 66.5H524.312C524.312 66.0833 524.062 65.875 523.562 65.875C523.396 65.875 523.229 66.0208 523.062 66.3125C524.562 66.8958 525.312 67.3125 525.312 67.5625C525.312 67.6458 525.375 67.7917 525.5 68C525.5 68.75 524.896 69.2083 523.688 69.375C522.562 69.2083 522 68.6875 522 67.8125H523.062C523.062 68.2292 523.167 68.4375 523.375 68.4375H524.125C524.333 68.4375 524.438 68.3333 524.438 68.125V67.8125C522.938 67.4375 522.188 67.0417 522.188 66.625V66.0625C522.521 65.4375 522.979 65.125 523.562 65.125ZM522 70.375H522.5C523.083 70.375 523.479 70.7917 523.688 71.625L524.75 70.375H525.5V70.6875C524.792 71.6458 524.438 72.3125 524.438 72.6875C524.562 72.6875 524.958 73.2292 525.625 74.3125V74.5H524.75C524.667 74.5 524.312 74.0833 523.688 73.25C523.312 74 523 74.4167 522.75 74.5H521.875C522.583 73.25 523.042 72.5833 523.25 72.5C522.417 71.2917 522 70.5833 522 70.375Z" fill="white"/>
</svg>
