<svg width="470" height="74" viewBox="0 0 470 74" fill="none" xmlns="http://www.w3.org/2000/svg">
<g clip-path="url(#clip0_117_10)">
<path d="M6.96947 0.4111H29.4266C38.8225 0.4111 45.2929 3.58008 48.8379 9.91805C51.7977 14.8857 53.2777 23.0907 53.2777 34.5333H55.4976V52.1083H33.6599V50.1555H40.4745V34.5333H38.5128V28.1097C38.5128 20.881 36.8952 16.2732 33.6599 14.2861C31.7326 13.1898 28.6694 12.6417 24.4706 12.6417H21.4763V34.1736H23.4897V52.1083H8.67312V35.5611H6.96947V0.4111ZM38.8741 46.6611H39.5969V48.5111H40.0099V49.1278H39.5969V49.8986H38.8741V49.1278H37.5319V48.6653C38.4267 47.4319 38.8741 46.7639 38.8741 46.6611ZM38.2546 48.5111H38.8741V47.7917C38.7709 47.7917 38.5644 48.0315 38.2546 48.5111ZM24.2124 48.4083H24.9352C25.0385 48.4083 25.2966 48.6996 25.7096 49.2819C26.0538 48.8708 26.2258 48.5796 26.2258 48.4083H27.0519V48.5111C26.5012 49.299 26.2258 49.7958 26.2258 50.0014L27.2067 51.5944H26.2258C26.2258 51.3204 26.0193 50.9949 25.6063 50.618C25.2966 51.2347 25.0385 51.5602 24.832 51.5944H24.1092C24.6599 50.6009 25.0213 50.0699 25.1933 50.0014L24.2124 48.4083ZM0.361389 52.1083H7.07273V54.4722H23.4897V59.3028H33.6599V54.4722H55.4976V59.3028H40.4745V72.4069H23.4897V74H7.17598C7.03831 74 6.96947 73.9143 6.96947 73.743V54.4722H0.361389V52.1083ZM23.4897 52.1083H33.6599V54.4722H23.4897V52.1083ZM55.4976 52.1083H70.056V54.4722H55.4976V52.1083ZM42.2298 59.7653H43.1074C43.6925 61.3754 44.0539 62.4889 44.1916 63.1055H43.5721C43.4344 63.1055 43.3139 62.8657 43.2107 62.3861H42.2298C42.0577 62.3861 41.9372 62.6259 41.8684 63.1055H41.094V63.0028C41.094 62.9343 41.4726 61.8551 42.2298 59.7653ZM45.0692 59.7653H45.8436L46.4631 61.8722H46.5664C46.5664 61.7352 46.7729 61.0329 47.1859 59.7653H47.9603C47.9603 60.0393 47.6161 61.1528 46.9277 63.1055H46.205C45.9985 63.1055 45.6199 61.9921 45.0692 59.7653ZM49.1993 59.7653H50.0769V63.1055H49.1993V59.7653ZM51.5224 59.7653H52.9163C53.9833 59.7653 54.5167 60.3819 54.5167 61.6153C54.5167 62.4718 53.9833 62.9685 52.9163 63.1055H51.5224V59.7653ZM52.4001 60.5361V62.3861H53.1744C53.2777 62.3861 53.4326 62.2148 53.6391 61.8722V60.9986C53.6391 60.8958 53.4842 60.7417 53.1744 60.5361H52.4001ZM42.5912 60.793C42.5912 60.8958 42.5051 61.2213 42.3331 61.7694H42.9526C42.8149 61.2213 42.7461 60.8958 42.7461 60.793H42.5912ZM63.3447 0.8736H99.5343V12.8472C99.5343 13.0185 99.4484 13.1042 99.2766 13.1042H77.7999V28.9319H97.0563V29.0861C97.0563 29.5315 96.9877 32.118 96.8498 36.8458C96.7465 36.8458 96.6945 36.8801 96.6945 36.9486H97.5725V40.6486H80.8974V55.6542H76.406V57.1444H80.8974V61.718H99.792V63.4139H98.2953V72.4069H75.6832V74H64.9451V47.7917H63.3447V38.5417H51.574V36.9486H63.3447V0.8736ZM63.4479 36.9486V38.5417H69.4882V36.9486H63.4479ZM109.033 0.513877H131.542C140.903 0.513877 147.34 3.68286 150.85 10.0208C153.879 14.9542 155.393 23.1421 155.393 34.5847H157.613V52.1597H135.723V50.1555H142.59V34.5847H140.577V28.1611C140.577 20.9324 138.959 16.3246 135.723 14.3375C133.831 13.2754 130.785 12.7444 126.586 12.7444H123.54V34.225H125.605V52.1597H110.841V35.5611H109.033V0.513877ZM102.477 52.1597H109.137V54.4722H125.605V59.3028H135.723V54.4722H157.613V59.3028H142.59V72.4069H125.605V74H109.291C109.119 74 109.033 73.9143 109.033 73.743V54.4722H102.477V52.1597ZM125.605 52.1597H135.723V54.4722H125.605V52.1597ZM157.613 52.1597H172.12V54.4722H157.613V52.1597ZM184.252 0.565266C192.443 0.565266 197.933 3.1861 200.721 8.42777C202.648 12.4018 203.612 16.2903 203.612 20.093H203.508C197.898 20.5726 194.061 20.8125 191.996 20.8125C191.996 18.106 191.153 15.8278 189.466 13.9778C187.883 13.0871 186.421 12.6417 185.078 12.6417H183.013C179.502 12.6417 177.368 13.9949 176.611 16.7014C176.439 17.4893 176.353 18.106 176.353 18.5514V19.6305C176.353 23.4676 178.384 26.2426 182.445 27.9555C182.79 28.2639 185.611 29.5486 190.912 31.8097C193.734 33.1115 196.349 34.7218 198.759 36.6403V36.743H185.801V38.1819H202.889V40.2375H205.057V62.5403H200.824V74H167.99V62.5403H160.246V54.8319H164.634V52.1597H160.246V50.3611H175.27V62.5403H190.653V44.1944H179.141V38.1819H164.84V36.743H171.759V36.6403C165.701 32.6319 162.673 26.9621 162.673 19.6305V18.6542C162.673 12.5218 164.565 7.86249 168.351 4.67638C171.793 1.93564 177.093 0.565266 184.252 0.565266ZM202.889 36.743H208.103V38.1819H202.889V36.743ZM155.29 52.1597H160.246V54.8319H155.29V52.1597ZM213.781 0.8736H249.971V12.8472C249.971 13.0185 249.886 13.1042 249.713 13.1042H228.237V28.9319H247.493V29.0861C247.493 29.5315 247.425 32.118 247.287 36.8458C247.184 36.8458 247.132 36.8801 247.132 36.9486H248.01V40.6486H231.334V55.6542H226.843V57.1444H231.334V61.718H250.23V63.4139H248.732V72.4069H226.12V74H215.382V47.7917H213.781V38.5417H202.011V36.9486H213.781V0.8736ZM213.886 36.9486V38.5417H219.925V36.9486H213.886ZM284.664 0.359711C294.989 0.359711 301.477 3.58008 304.127 10.0208C304.919 11.5625 305.314 12.5903 305.314 13.1042H298.809V15.0569H305.83V14.9542C305.83 14.6115 305.659 13.9949 305.314 13.1042H317.239V15.0569H305.934V15.2111C306.518 17.9861 306.931 20.9496 307.173 24.1014C307.173 24.2726 302.647 24.5982 293.596 25.0778V24.975C293.596 16.8213 290.79 12.7444 285.18 12.7444H283.631C279.433 12.7444 276.869 14.5259 275.939 18.0889C275.217 21.0694 274.855 25.0264 274.855 29.9597V39.9805L274.7 41.4708H269.95V43.7833H274.7V61.6153H294.576V43.0639H306.037V61.6153H299.687V73.0236H286.419V74H276.094V73.0236H265.614V67.3194H272.583V64.8528H262.103V56.425H257.664V45.993H260.038C259.936 41.7449 259.884 38.3704 259.884 35.8694C259.884 24.6667 260.417 17.6093 261.484 14.6972C262.551 11.3398 264.22 8.46205 266.492 6.06388C270.553 2.2611 276.61 0.359711 284.664 0.359711ZM365.045 0.359711C375.371 0.359711 381.875 3.56295 384.559 9.96943C385.317 11.5454 385.696 12.5903 385.696 13.1042H379.19V15.0569H386.16V14.9542C386.16 14.6115 386.005 13.9949 385.696 13.1042H397.621V15.0569H386.315V15.2111C386.9 17.9518 387.313 20.9153 387.554 24.1014C387.554 24.2726 383.028 24.5982 373.976 25.0778V24.975C373.976 16.7871 371.154 12.693 365.51 12.693H364.064C359.831 12.693 357.25 14.4746 356.32 18.0375C355.563 21.0523 355.185 25.0093 355.185 29.9083V39.9292L355.081 41.4194H350.384V43.7833H355.081V61.6153H375.009V43.0639H386.418V61.6153H380.068V73.0236H366.8V74H356.475V73.0236H345.995V67.3194H352.964V64.8528H342.537V56.425H338.045V46.0444H340.42C340.316 41.7278 340.265 38.3361 340.265 35.8694C340.265 24.6667 340.815 17.6093 341.917 14.6972C342.915 11.3398 344.567 8.44487 346.873 6.01249C350.969 2.24397 357.026 0.359711 365.045 0.359711ZM356.062 57.9153H356.681V60.4847H358.179V61.2556H356.062C355.925 61.2556 355.855 61.1699 355.855 60.9986V58.1722C355.855 58.0009 355.925 57.9153 356.062 57.9153ZM371.602 57.9153H372.375C372.789 58.2579 372.995 58.5833 372.995 58.8917C373.064 58.8917 373.357 58.5662 373.873 57.9153H374.493V58.1722C373.908 58.9259 373.615 59.4569 373.615 59.7653C373.719 59.7653 374.045 60.2107 374.596 61.1014V61.2556H373.873L372.995 60.2792C372.686 60.8615 372.445 61.1871 372.273 61.2556H371.498C371.67 60.9129 372.049 60.3305 372.634 59.5083L371.602 58.018V57.9153ZM381.823 62.3861C382.649 62.5917 383.062 62.8315 383.062 63.1055V63.6194H382.546L382.081 63.1055H381.566C381.393 63.1398 381.307 63.2254 381.307 63.3625V63.6194C382.581 63.8593 383.218 64.1333 383.218 64.4417V64.8528C383.218 65.5037 382.839 65.8292 382.081 65.8292H381.566C381.118 65.8292 380.756 65.5893 380.481 65.1097V64.5958H381.204C381.204 65.0069 381.445 65.2125 381.927 65.2125H382.081C382.185 65.2125 382.305 65.0926 382.443 64.8528C382.443 64.75 381.858 64.4588 380.688 63.9792L380.584 63.7222V63.1055C380.584 62.8315 380.997 62.5917 381.823 62.3861ZM388.741 0.359711H432.107V12.6417H417.755V63.5681H424.26V65.0583H417.755V70.6597H413.883V72.6125H416.619V74H403.455C403.282 74 403.196 73.9143 403.196 73.743V12.6417H388.741V0.359711ZM412.644 63.5681V65.0583H417.652V63.5681H412.644ZM432.674 0.4111H469.794V12.6417H447.388V30.1139H466.696L466.954 30.268L466.799 30.525C466.731 32.9917 466.696 34.4305 466.696 34.8417H464.58V34.9444C464.58 35.8351 464.493 37.7365 464.321 40.6486H466.283C466.283 42.0532 466.162 42.7555 465.921 42.7555H452.344V45.2736H445.271V46.6097H447.388V53.0333H454.461V54.1639H447.388V71.9958L447.285 72.8694H439.644V74H432.933C432.761 74 432.674 73.9143 432.674 73.743V71.8931L432.83 70.6597H436.443V68.8097H432.674V61.718H434.43V35.7153H437.424V33.8653H432.674V0.4111ZM431.435 49.2305H431.952C432.124 49.2305 432.21 49.3162 432.21 49.4875V51.1833C432.245 51.6972 432.365 51.9542 432.572 51.9542H433.087C433.191 51.9542 433.311 51.8343 433.449 51.5944V49.4875C433.484 49.3162 433.57 49.2305 433.707 49.2305H434.172V51.5944C434.172 52.3139 433.673 52.6736 432.674 52.6736C431.848 52.5708 431.435 52.2111 431.435 51.5944V49.2305ZM447.647 50.4639H447.749C449.057 51.0463 449.814 51.3375 450.021 51.3375V52.0569L447.749 52.8278H447.647V52.4167C447.647 52.3139 448.145 52.074 449.143 51.6972V51.5944C448.971 51.5944 448.473 51.4232 447.647 51.0805V50.4639ZM440.521 53.0333V54.1639H447.285V53.0333H440.521ZM432.468 53.5472H432.572C433.466 53.5472 433.913 53.924 433.913 54.6778H433.087C433.087 54.3352 432.881 54.1639 432.468 54.1639C432.331 54.1639 432.193 54.2838 432.055 54.5236C433.294 55.0032 433.913 55.3458 433.913 55.5514C433.913 55.6199 433.965 55.7398 434.069 55.9111C434.069 56.5278 433.57 56.9046 432.572 57.0417C431.642 56.9046 431.178 56.4764 431.178 55.7569H432.055C432.055 56.0996 432.141 56.2708 432.313 56.2708H432.933C433.105 56.2708 433.191 56.1852 433.191 56.0139V55.7569C431.952 55.4486 431.333 55.1232 431.333 54.7805V54.3181C431.608 53.8042 431.986 53.5472 432.468 53.5472ZM431.178 57.8639H431.591C432.072 57.8639 432.399 58.2065 432.572 58.8917L433.449 57.8639H434.069V58.1208C433.484 58.9088 433.191 59.4569 433.191 59.7653C433.294 59.7653 433.621 60.2107 434.172 61.1014V61.2556H433.449C433.38 61.2556 433.087 60.9129 432.572 60.2278C432.261 60.8444 432.004 61.1871 431.797 61.2556H431.074C431.659 60.2278 432.038 59.6796 432.21 59.6111C431.522 58.6176 431.178 58.0352 431.178 57.8639Z" fill="white"/>
</g>
<defs>
<clipPath id="clip0_117_10">
<rect width="470" height="74" fill="white"/>
</clipPath>
</defs>
</svg>
